<svg id="Layer_1" data-name="Layer 1" xmlns="http://www.w3.org/2000/svg" viewBox="0 0 1414.68 1566.2"><defs><style>.cls-1{fill:#020559;}.cls-2{fill:#c68c5d;stroke-width:16px;}.cls-12,.cls-13,.cls-2,.cls-4,.cls-5{stroke:#000;stroke-miterlimit:10;}.cls-3{fill:#1e2d3f;}.cls-4,.cls-7{fill:#1e1e1e;}.cls-4,.cls-5{stroke-width:15px;}.cls-12,.cls-13,.cls-5{fill:#eeb485;}.cls-6{fill:#fff;}.cls-8{fill:#663d23;}.cls-9{fill:#1a1d1d;}.cls-10{fill:#fbfbfb;}.cls-11{fill:#ca7355;}.cls-12,.cls-13{stroke-width:12px;}.cls-13{stroke-linecap:round;}</style></defs><title>bitmoji</title><circle class="cls-1" cx="821.68" cy="973.2" r="593"/><polygon class="cls-2" points="732.68 885.7 670.68 1125.7 907.68 1157.7 916.68 897.7 732.68 885.7"/><path class="cls-3" d="M1035,1969.5A584,584,0,0,1,728.57,1883l.92-209.55L639.62,1778.3l-.11.14c-.23.3-24.72,31.09-57,31.09-18.87,0-37.2-10.53-54.5-31.29-25.44-30.53-55.25-97.57-86.22-193.89-20.13-62.62-34.74-119.06-38.67-134.54,8.47-8,25.22-22.16,36-24.85,2-.5,4.22-1.07,6.54-1.66,12.76-3.28,30.24-7.77,39.91-7.77a15.35,15.35,0,0,1,3.17.25c9.8,10,68.35,102,103.62,158.81l5.87,9.43,134.26-183.49.2-.36c.61-1,15.42-26,44.47-26,26.78,0,99.68,2.69,128.22,3.78-6.16,14.1-13.78,39.38-2.7,62,11,22.44,37.08,36,77.6,40.36a240.17,240.17,0,0,0,25.63,1.41c53.66,0,88.52-19.81,108.32-36.43a133.12,133.12,0,0,0,27.58-31.42l155,49c4.46,2.38,39.4,22,46.54,54.14,4.05,18.23,17.33,138.74,37.42,339.54A582.9,582.9,0,0,1,1035,1969.5Z" transform="translate(-213.82 -410.8)"/><path d="M777.13,1381.71c23.84,0,84.57,2.15,117.53,3.38-5.23,15.82-8.71,37.84,1.25,58.22,12.18,24.91,40.29,39.89,83.54,44.52a249.91,249.91,0,0,0,26.43,1.45c24.53,0,47.41-4,68-11.82A156.76,156.76,0,0,0,1119,1451.1a144.1,144.1,0,0,0,25.91-28.31l148.91,47c5.69,3.13,36,21,42.17,48.84,4,17.82,17,136.45,36.84,334.37a578.36,578.36,0,0,1-636.77,25.78l.82-184.91.19-40.82-26.57,31-76.47,89.22-.21.23-.23.3c-.74.92-22.92,28.22-51.11,28.22-16.54,0-32.93-9.62-48.74-28.59-24.82-29.79-54.15-95.94-84.81-191.3-18.52-57.61-32.37-110-37.46-129.86,9.54-8.59,22.21-18.24,29.42-20l6.58-1.68c11.46-2.94,28.65-7.36,37.54-7.52,12.25,15.39,59.36,88.63,100.93,155.5l11.73,18.87,13.12-17.93L738.26,1405.3l.5-.68.42-.73c.12-.22,13.36-22.18,38-22.18m0-15c-34,0-51,29.74-51,29.74L598.7,1570.63S501,1413.44,492.5,1409.19a16.31,16.31,0,0,0-7-1.16c-12.43,0-34.52,6.22-48.27,9.66-17,4.24-42.49,29.73-42.49,29.73S458.51,1706.57,522.23,1783c21.24,25.49,42,34,60.27,34,36.5,0,62.93-34,62.93-34l76.47-89.21-.85,193.33a593.31,593.31,0,0,0,667.58-27.1c-13.19-132-32.53-320.17-38-344.66-8.49-38.24-51-59.48-51-59.48l-161.43-51s-32.85,69.34-132.36,69.34a231.3,231.3,0,0,1-24.83-1.37c-118.95-12.74-63.72-102-63.72-102s-106.21-4.25-140.2-4.25Z" transform="translate(-213.82 -410.8)"/><path class="cls-4" d="M1437,1049s62-110,65-128,16,14,16,14a368.11,368.11,0,0,0,20-71c7-40-7-140-13-149s26,9,26,9-16-60-45-75,28-3,28-3-149-138-187-152-146-47-196-43-7-25-7-25-62,13-73,36-38-21-38-21l-9,33s-20-16-45-16-48,8-48,8l47,22s-57,2-62,5,32,28,32,28-67,15-88,37-28,28-28,28l41-5s-56,42-63,54-24,57-24,57l46-25s-30,96-35,134-15,201,22,216,365,139,365,139Z" transform="translate(-213.82 -410.8)"/><path class="cls-5" d="M781.5,1161.5s104,190,164,194,53,13,152,0,218-94,218-94,19-31,24-52,0-79,0-79,18,33,45,26,84-100,85-114,6-43-20-61-51-5-60,6-37,72-62,78-40,7-40,7,13-116,9-132-7-51-17-64-2-49-2-49-36-16-56-35-27-44-27-44-58,6-82,0-53-25-53-25-24,6-48-6-38-32-38-32-38-5-39-9,28,50,28,50-48-6-73-50-67,239-67,239-10,48-21,64-27,92-28,124A179.63,179.63,0,0,0,781.5,1161.5Z" transform="translate(-213.82 -410.8)"/><path class="cls-6" d="M1220.83,1063.33c-35.86,0-105.15-3.92-121.57-6.39a28.91,28.91,0,0,1-25.22-26.15c-.67-2.85-2.52-14.17,2-39.67,5.17-29,29.94-45.89,50.63-47.11,4.39-.26,10.82-.41,17.64-.41,19.55,0,67,1.18,85.22,12.11,21,12.57,37.65,30.31,41.11,39.53,3.27,8.73,1.57,23.89.44,33.93l-.15,1.38c-1.29,11.57-14,26.71-26.26,31.15-2.09.76-6.7,1.63-23.87,1.63Z" transform="translate(-213.82 -410.8)"/><path class="cls-7" d="M1144.35,948.6c25.72,0,67.13,2.09,82.65,11.4,20,12,36,29,39,37s1,24,0,33-12,23-23,27c-2.6,1-10.83,1.33-22.17,1.33-36.62,0-105.56-4-120.83-6.33-20-3-21-22-21-22s-3-10,2-38,29-42,46-43c3.81-.22,9.92-.4,17.35-.4m0-10c-6.91,0-13.45.15-17.94.42-11.31.66-23.42,5.62-33.22,13.6a61.81,61.81,0,0,0-22,37.62c-4.49,25.11-3,37.23-2.07,41.32.92,9.66,8,27.12,29.43,30.33,16.57,2.48,86.28,6.44,122.31,6.44,18.7,0,23-1,25.59-1.93,14-5.08,28-21.9,29.52-35.3l.15-1.37c1.56-13.91,2.68-27.15-.73-36.24-4.37-11.67-23.36-30.15-43.22-42.06-8.27-5-21.86-8.42-41.56-10.56a453.84,453.84,0,0,0-46.23-2.27Z" transform="translate(-213.82 -410.8)"/><path class="cls-6" d="M947.44,1029.89a24.72,24.72,0,0,1-14.31-4.79c-8.82-6.18-55.61-26.12-85.46-28.11l-1.12-.08-1-.54C843.63,995.29,826.45,985.6,820,977c-7.33-9.77-8-19.54-2.85-40.21,5.82-23.3,47.66-38.69,57.3-39.76A162.35,162.35,0,0,1,892.89,896c19.94,0,48.15,3.86,69.38,22.26,27.65,24,26,48.9,25,63.8-.15,2.31-.28,4.31-.28,6,0,12-12.64,24.93-23.64,34.86-.82.74-1.52,1.37-1.82,1.68a20.41,20.41,0,0,1-14.09,5.35Z" transform="translate(-213.82 -410.8)"/><path class="cls-7" d="M892.89,901c18.24,0,45.66,3.32,66.11,21,30,26,23,53,23,66s-21,30-24,33a15.49,15.49,0,0,1-10.55,3.89A19.8,19.8,0,0,1,936,1021c-10-7-58-27-88-29,0,0-18-10-24-18s-7-16-2-36,44-35,53-36a156.51,156.51,0,0,1,17.89-1m0-10a166.81,166.81,0,0,0-19,1.1c-6,.67-19.23,5.13-31.75,12.07-16.94,9.39-27,20-29.85,31.44-4.8,19.21-5.64,32,3.7,44.43,6.93,9.24,23.83,18.9,27.14,20.74l2,1.09,2.23.15c28.49,1.9,74.66,21.42,82.94,27.21a30,30,0,0,0,17.18,5.7,25.53,25.53,0,0,0,17.62-6.82c.22-.22,1-.93,1.64-1.5C979.21,1015.29,992,1001.88,992,988c0-1.51.13-3.43.27-5.65,1-14.79,2.8-42.32-26.72-67.91C943.15,895,913.68,891,892.89,891Z" transform="translate(-213.82 -410.8)"/><circle class="cls-8" cx="968.18" cy="592.2" r="52"/><circle class="cls-8" cx="695.68" cy="539.7" r="46.5"/><circle cx="967.11" cy="591.56" r="29.35"/><circle class="cls-6" cx="952.54" cy="577.12" r="14.64"/><circle cx="696.54" cy="537.12" r="25.92"/><circle class="cls-6" cx="681.26" cy="524.41" r="14.64"/><path class="cls-9" d="M1015,841l-26,37s-96-24-112-25-45.43,6.5-45.43,6.5S855,821,887,820,1015,841,1015,841Z" transform="translate(-213.82 -410.8)"/><path class="cls-9" d="M1089,857s-6,30,5,37,115,15,129,21,48,27,48,27,3-34-30-59S1089,857,1089,857Z" transform="translate(-213.82 -410.8)"/><path d="M863,1152s44,52,122,60,141,6,157-11" transform="translate(-213.82 -410.8)"/><path class="cls-10" d="M984,1184c38,7,138,22,138,22s-61,45-146,23-88-59-88-59Z" transform="translate(-213.82 -410.8)"/><path id="Nose" class="cls-11" d="M946,1076s7,42,43,48,72-18,72-18Z" transform="translate(-213.82 -410.8)"/><path class="cls-12" d="M388.88,1446s29.79-21.41,44.68-27.92,64.23-13,64.23-13,21.41-44.68,21.41-67,20.48-89.36,33.51-100.53-4.66-27-17.69-24.2-39.09,26.07-49.33,50.27-15.83,18.61-26.07,2.79-27-128.45-37.23-141.48-32.58-6.52-33.51,11.16c-.76,14.5,9.11,98.42,12.69,128.21a2,2,0,0,1-3.76,1.2c-14.79-27.18-57.76-105.14-68.5-113.58-13-10.24-38.16,1.86-29.79,25.13,6.83,19,51.38,88,67.62,112.92a2,2,0,0,1-2.82,2.69c-25.14-18-89.81-92.07-104.34-87.48-17.68,5.58-17.68,12.1-13,23.27,3.62,8.68,58.14,75.66,85.38,94.38a2.46,2.46,0,0,1-2.07,4.39c-26.22-7.52-85.25-49.93-99.1-47.85-18.62,2.79-11.17,24.2,0,30.71s87,55.93,87,55.93,14,28.85,33.51,46.54S388.88,1446,388.88,1446Z" transform="translate(-213.82 -410.8)"/><path class="cls-13" d="M440,1356s-4.92-44.33,45.54-87.67" transform="translate(-213.82 -410.8)"/></svg>